<svg id="Capa_1" enable-background="new 0 0 511.689 511.689" height="512" viewBox="0 0 511.689 511.689" width="512" xmlns="http://www.w3.org/2000/svg"><g><path d="m255.844 511.445c-80.146 0-136.538-10.375-177.473-32.651-52.003-28.301-78.371-76.636-78.371-143.662 0-59.083 41.904-133.137 124.549-220.105 60.297-63.453 119.6-109.69 122.096-111.628 2.685-2.085 5.902-3.136 9.123-3.152l69.899 286.795s-69.9 224.399-69.823 224.403z" fill="#e2dff4"/><path d="m255.844 511.445c-41.433 0-71.976-11.735-93.375-35.877-25.438-28.698-37.803-74.635-37.803-140.437 0-57.28 20.003-129.961 59.453-216.022 29.105-63.492 57.777-109.836 58.983-111.778 3.535-5.691 10.414-8.348 16.857-6.508 6.441 1.838 10.884 7.725 10.884 14.424v481.198c.001 8.285-6.715 15-14.999 15z" fill="#b9bae6"/><g><path d="m387.14 115.026c-60.298-63.452-119.602-109.689-122.097-111.627-2.704-2.1-5.98-3.172-9.276-3.156v511.198c.026 0 .051.004.077.004 80.146 0 136.538-10.375 177.473-32.651 52.004-28.301 78.372-76.636 78.372-143.662 0-59.083-41.905-133.137-124.549-220.106z" fill="#fbd9b0"/><g><path d="m421.382 263.607c-18.128-27.876-43.815-58.637-76.349-91.428-29.69-29.922-59.675-55.943-79.603-72.503-2.766-2.3-6.201-3.479-9.664-3.461v352.663c.026 0 .051.004.077.004 68.983 0 117.817-7.951 149.295-24.308 21.527-11.187 46.236-30.927 46.236-84.726.001-13.74-5.203-38.12-29.992-76.241z" fill="#ff1f3d"/><g fill="#5b5555"><path d="m367.795 347.715c-8.284 0-15-6.716-15-15v-9.21c0-8.284 6.716-15 15-15s15 6.716 15 15v9.21c0 8.284-6.716 15-15 15z"/><path d="m317.533 307.715c-8.284 0-15-6.716-15-15v-9.21c0-8.284 6.716-15 15-15s15 6.716 15 15v9.21c0 8.284-6.716 15-15 15z"/><path d="m317.533 377.715c-8.284 0-15-6.716-15-15v-9.21c0-8.284 6.716-15 15-15s15 6.716 15 15v9.21c0 8.284-6.716 15-15 15z"/></g></g></g></g></svg>