<svg id="Layer_1" enable-background="new 0 0 256 256" height="512" viewBox="0 0 256 256" width="512" xmlns="http://www.w3.org/2000/svg"><g><g><g><path d="m47.687 36.884c-.974 11.564-13.031 13.389-13.031 13.389 10.352.487 12.932 14.059 12.932 14.059.221-9.677 13.328-14.202 13.328-14.202-9.819-.587-13.229-13.246-13.229-13.246z" fill="#d4d853"/></g></g><g><g><path d="m61.005 48.633c-8.609-.515-11.838-12.025-11.87-12.141-.191-.703-.86-1.161-1.583-1.101-.725.066-1.298.642-1.359 1.367-.86 10.215-11.32 11.963-11.761 12.033-.763.115-1.313.79-1.273 1.561.04.77.657 1.384 1.428 1.421 9.033.425 11.505 12.718 11.529 12.842.137.711.759 1.217 1.472 1.217.042 0 .084-.001.126-.005.764-.064 1.357-.693 1.375-1.46.195-8.508 12.198-12.777 12.319-12.819.676-.235 1.092-.914.995-1.623-.1-.708-.684-1.249-1.398-1.292zm-13.573 10.348c-1.357-3.131-3.71-6.909-7.591-8.878 2.933-1.405 6.413-3.913 8.207-8.275 1.551 3.071 4.202 6.881 8.338 8.724-3.009 1.64-6.927 4.406-8.954 8.429z" fill="#3a312a"/></g></g><g><g><path d="m25.977 53.864c-.689 8.179-9.217 9.471-9.217 9.471 7.322.345 9.147 9.944 9.147 9.944.156-6.844 9.427-10.045 9.427-10.045-6.945-.416-9.357-9.37-9.357-9.37z" fill="#d4d853"/></g></g><g><g><path d="m35.423 61.736c-5.769-.345-7.977-8.186-7.998-8.265-.19-.702-.854-1.161-1.582-1.102-.726.065-1.299.643-1.36 1.368-.579 6.871-7.651 8.067-7.947 8.114-.762.115-1.313.79-1.273 1.56.04.771.657 1.385 1.428 1.421 6.039.284 7.728 8.644 7.744 8.726.135.712.759 1.22 1.473 1.22.041 0 .083-.001.124-.005.765-.064 1.358-.694 1.376-1.461.13-5.709 8.336-8.633 8.417-8.662.677-.234 1.094-.913.997-1.622-.099-.707-.684-1.249-1.399-1.292zm-9.589 6.797c-.925-1.886-2.341-3.948-4.45-5.281 1.856-1.042 3.699-2.631 4.874-4.918 1.058 1.874 2.656 3.956 4.944 5.225-1.851 1.101-3.992 2.741-5.368 4.974z" fill="#3a312a"/></g></g><g><g><path d="m25.977 27.207c-.689 8.179-9.217 9.471-9.217 9.471 7.322.345 9.147 9.944 9.147 9.944.156-6.845 9.427-10.045 9.427-10.045-6.945-.416-9.357-9.37-9.357-9.37z" fill="#d4d853"/></g></g><g><g><path d="m35.423 35.079c-5.748-.343-7.96-8.127-7.998-8.264-.19-.703-.86-1.165-1.583-1.102-.726.065-1.299.642-1.36 1.368-.579 6.871-7.651 8.067-7.947 8.114-.763.115-1.313.79-1.273 1.561.04.77.657 1.384 1.428 1.421 6.039.284 7.728 8.644 7.744 8.726.135.712.759 1.22 1.472 1.22.042 0 .083-.002.125-.005.765-.063 1.358-.694 1.376-1.461.13-5.709 8.336-8.634 8.417-8.662.676-.234 1.094-.913.996-1.622-.097-.71-.682-1.251-1.397-1.294zm-9.589 6.796c-.925-1.886-2.341-3.948-4.45-5.281 1.856-1.041 3.699-2.63 4.874-4.918 1.058 1.874 2.655 3.955 4.944 5.225-1.851 1.101-3.992 2.741-5.368 4.974z" fill="#3a312a"/></g></g><g><g><path d="m140.409 36.38c-4.836-8.03-17.45-.708-12.592 7.36 3.407 5.658 4.583 11.519 3.966 18.08-.369 3.926 3.615 7.291 7.291 7.291 4.25 0 6.922-3.354 7.291-7.291.838-8.913-1.348-17.789-5.956-25.44z" fill="#87796f"/></g></g><g><g><path d="m141.694 35.606c-2.927-4.86-8.3-5.091-12.097-2.805-3.69 2.222-5.928 6.959-3.066 11.713 3.17 5.263 4.364 10.718 3.758 17.165-.194 2.07.551 4.147 2.099 5.847 1.759 1.932 4.258 3.085 6.685 3.085 4.694 0 8.307-3.558 8.785-8.651.858-9.12-1.274-18.233-6.164-26.354zm3.179 26.074c-.277 2.953-2.177 5.932-5.798 5.932-1.574 0-3.285-.807-4.467-2.105-.973-1.068-1.445-2.328-1.33-3.546.659-7.021-.706-13.234-4.175-18.994-1.943-3.227-.374-6.14 2.043-7.595 2.441-1.469 5.979-1.539 7.979 1.783 4.557 7.567 6.544 16.048 5.748 24.525z" fill="#3a312a"/></g></g><g><g><path d="m163.249 72.151c-2.63-11.396-16.333-19.208-27.478-15.602-11.914 3.855-18.419 15.268-15.602 27.478.629 3.729 4.801 19.586-7.825 43.209l-8.3 12.422c-20.535 22.759-61.191 22.303-64.45 22.096-11.684-.742-22.854 10.805-22.338 22.338.57 12.737 9.821 21.542 22.338 22.338 54.446 3.459 110.726-31 123.589-85.734 3.779-16.079 3.777-32.462.066-48.545z" fill="#d7e057"/></g></g><g><g><path d="m164.71 71.813c-1.351-5.856-5.469-11.109-11.298-14.412-5.81-3.292-12.408-4.123-18.103-2.28-12.589 4.074-19.571 16.372-16.619 29.155.042.246.097.542.163.888.925 4.875 3.742 19.711-7.832 41.365-.391.731-.115 1.64.616 2.03.731.392 1.64.114 2.03-.616 12.073-22.588 9.108-38.207 8.133-43.339-.061-.322-.114-.598-.17-.915-2.654-11.499 3.351-22.073 14.602-25.713 4.899-1.586 10.621-.842 15.7 2.035 5.1 2.89 8.691 7.438 9.854 12.477 3.677 15.934 3.655 32.038-.064 47.864-5.992 25.499-22.177 48.152-45.574 63.786-22.606 15.106-49.765 22.492-76.46 20.794-11.996-.762-20.408-9.164-20.934-20.907-.232-5.163 2.163-10.73 6.406-14.894 4.13-4.053 9.354-6.192 14.338-5.88.427.025 43.805 1.633 65.659-22.588.555-.615.506-1.563-.109-2.119-.616-.555-1.563-.506-2.119.109-20.925 23.191-62.831 21.63-63.241 21.604-5.838-.368-11.893 2.084-16.63 6.733-4.84 4.751-7.57 11.17-7.301 17.169.598 13.352 10.139 22.904 23.741 23.768 2.575.163 5.151.245 7.729.245 24.816 0 49.616-7.525 70.588-21.539 24.03-16.058 40.661-39.353 46.828-65.594 3.826-16.279 3.848-32.84.067-49.226z" fill="#3a312a"/></g></g><g><g><path d="m163.626 55.083c-2.292-8.654-7.409-16.229-14.375-21.819-7.311-5.867-16.621 5.361-9.276 11.255 5.151 4.133 8.278 9.228 9.965 15.599 1.009 3.812 5.91 5.595 9.361 4.325 3.989-1.467 5.338-5.537 4.325-9.36z" fill="#87796f"/></g></g><g><g><path d="m165.077 54.7c-2.345-8.856-7.493-16.672-14.887-22.605-2.483-1.991-5.524-2.505-8.348-1.406-3.066 1.192-5.458 4.147-5.95 7.352-.453 2.942.664 5.659 3.144 7.65 4.792 3.845 7.796 8.552 9.454 14.813.533 2.01 1.949 3.701 3.989 4.762 1.387.721 2.926 1.089 4.426 1.089 1.008 0 1.998-.166 2.914-.503 4.405-1.621 6.567-6.206 5.258-11.152zm-6.294 8.336c-1.476.544-3.361.378-4.919-.433-1.281-.667-2.16-1.685-2.473-2.869-1.806-6.817-5.232-12.177-10.477-16.385-2.063-1.655-2.257-3.553-2.058-4.854.336-2.181 1.972-4.195 4.073-5.012 1.291-.501 3.271-.743 5.382.95 6.89 5.529 11.685 12.802 13.864 21.033.76 2.869.006 6.32-3.392 7.57z" fill="#3a312a"/></g></g><g><g><path d="m199.739 104.53c-2.006-16.394-7.665-31.769-16.701-45.582-6.403-9.787-21.961-12.387-31.175-5.154-9.85 7.732-12.014 20.689-5.154 31.175 2.041 3.567 12.969 19.12 6.316 50.45-7.103 33.452-51.709 49.311-55.096 50.319-11.222 3.338-17.718 18.031-13.251 28.677 4.934 11.757 16.656 16.826 28.677 13.251 4.659-1.386 9.226-3.064 13.678-5.002l12.953-6.568c38.711-22.545 65.366-65.689 59.753-111.566z" fill="#d7e057"/></g></g><g><g><path d="m201.227 104.348c-2.031-16.597-7.728-32.148-16.934-46.221-3.291-5.029-8.969-8.537-15.58-9.624-6.588-1.084-13.068.415-17.777 4.112-10.408 8.17-12.714 22.123-5.529 33.1.125.217.281.478.463.783 7.847 13.075 9.761 29.43 5.688 48.611-3.596 16.934-17.376 29.134-28.304 36.388-11.659 7.739-23.279 12.069-25.752 12.805-5.601 1.666-10.442 6.062-13.282 12.061-2.902 6.13-3.247 13.096-.924 18.634 4.086 9.736 12.589 15.318 22.421 15.318 2.614 0 5.323-.395 8.066-1.21 4.64-1.38 9.299-3.084 13.849-5.064.76-.331 1.107-1.214.777-1.974-.331-.759-1.214-1.108-1.974-.777-4.439 1.932-8.983 3.594-13.507 4.939-11.519 3.426-22.318-1.553-26.866-12.393-2-4.765-1.675-10.817.869-16.19 2.476-5.23 6.641-9.046 11.426-10.469.483-.144 48.599-15.953 56.135-51.445 4.236-19.947 2.2-37.032-6.05-50.778-.17-.284-.316-.526-.479-.805-6.46-9.875-4.477-21.871 4.825-29.174 4.05-3.178 9.675-4.456 15.438-3.511 5.784.951 10.725 3.979 13.556 8.307 8.953 13.685 14.493 28.806 16.468 44.942 2.64 21.577-1.882 43.576-13.076 63.619-10.674 19.112-26.561 35.181-45.943 46.468-.716.417-.958 1.336-.542 2.051.417.716 1.336.958 2.051.542 19.846-11.558 36.116-28.018 47.052-47.598 11.508-20.603 16.153-43.234 13.435-65.447z" fill="#3a312a"/></g></g><g><g><path d="m177.679 43.331c-5.079-7.372-12.453-12.774-20.898-15.684-8.863-3.054-13.835 10.658-4.931 13.726 6.244 2.151 10.908 5.891 14.647 11.318 2.237 3.247 7.452 3.271 10.271.911 3.259-2.728 3.154-7.014.911-10.271z" fill="#87796f"/></g></g><g><g><path d="m178.914 42.48c-5.197-7.543-12.682-13.163-21.645-16.251-5.366-1.848-9.633 1.425-11.076 5.614-1.403 4.073-.079 9.141 5.167 10.949 5.809 2.002 10.226 5.417 13.9 10.751 1.18 1.712 3.084 2.826 5.362 3.136.433.059.869.088 1.302.088 2.154 0 4.256-.716 5.806-2.014 3.6-3.014 4.086-8.061 1.184-12.273zm-3.109 9.972c-1.207 1.009-3.039 1.49-4.777 1.254-1.432-.195-2.602-.857-3.296-1.865-4.001-5.807-9.037-9.695-15.393-11.885-3.561-1.227-4.228-4.468-3.309-7.135.928-2.694 3.597-5.018 7.262-3.755 8.352 2.878 15.321 8.106 20.151 15.117 1.683 2.441 2.138 5.945-.638 8.269z" fill="#3a312a"/></g></g><g><g><path d="m228.365 77.682c-7.423-14.754-17.941-27.316-31.11-37.266-9.331-7.051-24.853-4.245-31.084 5.675-6.661 10.604-4.324 23.53 5.675 31.084 3.125 2.668 18.663 13.618 22.979 45.355 4.608 33.886-32.023 63.874-34.871 65.966-9.436 6.931-10.589 22.955-2.79 31.467 8.613 9.401 21.359 10.215 31.467 2.79 43.968-32.297 65.005-94.845 39.734-145.071z" fill="#d7e057"/></g></g><g><g><path d="m229.705 77.007c-7.516-14.938-18.129-27.651-31.546-37.789-4.795-3.623-11.326-5.009-17.915-3.798-6.567 1.205-12.16 4.803-15.343 9.872-7.031 11.192-4.504 25.085 6.005 33.052.184.157.408.34.667.551 11.8 9.657 19.124 24.406 21.766 43.835 2.333 17.154-6.519 33.291-14.356 43.807-8.362 11.221-17.837 19.22-19.917 20.748-4.709 3.459-7.782 9.232-8.43 15.837-.662 6.75 1.365 13.424 5.422 17.852 5.041 5.502 11.458 8.306 18.055 8.306 5.22 0 10.553-1.756 15.406-5.32 22.089-16.225 38.562-39.877 46.384-66.599 8.118-27.736 5.917-56.274-6.198-80.354zm3.318 79.512c-7.638 26.094-23.719 49.187-45.281 65.024-9.688 7.117-21.531 6.073-29.473-2.594-3.491-3.81-5.229-9.616-4.648-15.532.565-5.759 3.197-10.757 7.221-13.712.406-.298 40.359-31.424 35.469-67.378-2.748-20.206-10.432-35.6-22.838-45.753-.256-.21-.476-.389-.653-.54-.023-.02-.046-.038-.07-.056-9.416-7.114-11.599-19.077-5.309-29.09 2.738-4.359 7.602-7.463 13.345-8.517 1.384-.254 2.763-.379 4.117-.379 4.284 0 8.313 1.251 11.449 3.62 13.047 9.858 23.368 22.22 30.675 36.744 11.771 23.398 13.901 51.158 5.996 78.163z" fill="#3a312a"/></g></g><g><g><path d="m227.03 78.36c-7.31-14.53-17.63-26.89-30.68-36.75-3.13-2.37-7.16-3.62-11.45-3.62-1.35 0-2.73.13-4.11.38-1.22.23-2.41.54-3.54.96 1.48.58 2.86 1.34 4.1 2.28 13.05 9.86 23.37 22.22 30.68 36.75 11.77 23.39 13.9 51.15 5.99 78.16-7.64 26.09-23.72 49.19-45.28 65.02-1.94 1.42-3.97 2.52-6.03 3.29 6.72 2.64 14.38 1.6 21.03-3.29 21.56-15.83 37.64-38.93 45.28-65.02 7.91-27.01 5.78-54.77-5.99-78.16z" fill="#b9c239"/></g></g></g></svg>